<svg xmlns="http://www.w3.org/2000/svg" version="1.1" xmlns:xlink="http://www.w3.org/1999/xlink" xmlns:svgjs="http://svgjs.com/svgjs" width="512" height="512" x="0" y="0" viewBox="0 0 384 384" style="enable-background:new 0 0 512 512" xml:space="preserve" class=""><g transform="matrix(1,0,0,1,0,40)"><path xmlns="http://www.w3.org/2000/svg" d="m72 287.996094c4.097656 0 8.183594-1.558594 11.3125-4.6875 6.246094-6.246094 6.246094-16.375 0-22.621094-31.648438-31.65625-51.3125-76.371094-51.3125-116.691406 0-40.324219 19.664062-85.03125 51.3125-116.6875 6.246094-6.246094 6.246094-16.375 0-22.621094-6.242188-6.25-16.382812-6.25-22.625 0-38 38-60.6875 90.078125-60.6875 139.308594 0 49.226562 22.6875 101.3125 60.6875 139.3125 3.121094 3.128906 7.214844 4.6875 11.3125 4.6875zm0 0" fill="#fff"  data-original="#000000" style="" class=""></path><path xmlns="http://www.w3.org/2000/svg" d="m123.289062 52.660156c-6.265624-6.238281-16.394531-6.222656-22.625.050782-23.304687 23.390624-36.664062 56.664062-36.664062 91.285156 0 34.625 13.359375 67.898437 36.664062 91.289062 3.128907 3.144532 7.230469 4.710938 11.335938 4.710938 4.078125 0 8.167969-1.550782 11.289062-4.660156 6.261719-6.234376 6.285157-16.371094.046876-22.625-17.367188-17.449219-27.335938-42.496094-27.335938-68.714844 0-26.222656 9.96875-51.261719 27.335938-68.710938 6.238281-6.253906 6.214843-16.390625-.046876-22.625zm0 0" fill="#fff"  data-original="#000000" style="" class=""></path><path xmlns="http://www.w3.org/2000/svg" d="m300.6875 4.6875c-6.246094 6.246094-6.246094 16.375 0 22.621094 31.648438 31.65625 51.3125 76.363281 51.3125 116.6875 0 40.320312-19.664062 85.035156-51.3125 116.691406-6.246094 6.246094-6.246094 16.375 0 22.621094 3.128906 3.128906 7.214844 4.6875 11.3125 4.6875s8.191406-1.558594 11.3125-4.6875c38-38 60.6875-90.085938 60.6875-139.3125 0-49.230469-22.6875-101.308594-60.6875-139.308594-6.242188-6.25-16.382812-6.25-22.625 0zm0 0" fill="#fff"  data-original="#000000" style="" class=""></path><path xmlns="http://www.w3.org/2000/svg" d="m272 239.996094c4.105469 0 8.207031-1.566406 11.335938-4.710938 23.304687-23.390625 36.664062-56.664062 36.664062-91.289062 0-34.621094-13.359375-67.894532-36.664062-91.285156-6.230469-6.265626-16.367188-6.289063-22.625-.050782-6.261719 6.234375-6.285157 16.371094-.046876 22.625 17.367188 17.449219 27.335938 42.488282 27.335938 68.710938 0 26.21875-9.96875 51.265625-27.335938 68.714844-6.238281 6.253906-6.214843 16.390624.046876 22.625 3.121093 3.109374 7.199218 4.660156 11.289062 4.660156zm0 0" fill="#fff"  data-original="#000000" style="" class=""></path><path xmlns="http://www.w3.org/2000/svg" d="m192 207.996094c35.289062 0 64-28.710938 64-64 0-35.285156-28.710938-64-64-64s-64 28.714844-64 64c0 35.289062 28.710938 64 64 64zm0-96c17.648438 0 32 14.355468 32 32 0 17.648437-14.351562 32-32 32s-32-14.351563-32-32c0-17.644532 14.351562-32 32-32zm0 0" fill="#fff"  data-original="#000000" style="" class=""></path></g></svg>