<svg xmlns="http://www.w3.org/2000/svg" version="1.1" xmlns:xlink="http://www.w3.org/1999/xlink" xmlns:svgjs="http://svgjs.com/svgjs" width="512" height="512" x="0" y="0" viewBox="0 0 512 512" style="enable-background:new 0 0 512 512" xml:space="preserve" fill="#fff" class=""><g>
<g xmlns="http://www.w3.org/2000/svg">
	<g>
		<path d="M466.208,67.125l-42.667-42.667c-4.167-4.167-10.917-4.167-15.083,0c-4.167,4.167-4.167,10.917,0,15.083l35.125,35.125    l-35.125,35.125c-2,2-3.125,4.708-3.125,7.542v32C405.333,172.865,424.469,192,448,192v181.333    c0,5.885-4.781,10.667-10.667,10.667c-5.885,0-10.667-4.781-10.667-10.667V352c0-17.646-14.354-32-32-32H384V42.667    C384,19.135,364.865,0,341.333,0H128c-23.531,0-42.667,19.135-42.667,42.667v384c-23.531,0-42.667,19.135-42.667,42.667v32    c0,5.896,4.771,10.667,10.667,10.667H416c5.896,0,10.667-4.771,10.667-10.667v-32c0-23.531-19.135-42.667-42.667-42.667v-85.333    h10.667c5.885,0,10.667,4.781,10.667,10.667v21.333c0,17.646,14.354,32,32,32c17.646,0,32-14.354,32-32V74.667    C469.333,71.833,468.208,69.125,466.208,67.125z M341.333,181.531c0,5.896-4.771,10.667-10.667,10.667h-192    c-5.896,0-10.667-4.771-10.667-10.667V53.333c0-5.896,4.771-10.667,10.667-10.667h192c5.896,0,10.667,4.771,10.667,10.667V181.531 z" fill="#fff" data-original="#fff" style="" class=""></path>
	</g>
</g>
<g xmlns="http://www.w3.org/2000/svg">
</g>
<g xmlns="http://www.w3.org/2000/svg">
</g>
<g xmlns="http://www.w3.org/2000/svg">
</g>
<g xmlns="http://www.w3.org/2000/svg">
</g>
<g xmlns="http://www.w3.org/2000/svg">
</g>
<g xmlns="http://www.w3.org/2000/svg">
</g>
<g xmlns="http://www.w3.org/2000/svg">
</g>
<g xmlns="http://www.w3.org/2000/svg">
</g>
<g xmlns="http://www.w3.org/2000/svg">
</g>
<g xmlns="http://www.w3.org/2000/svg">
</g>
<g xmlns="http://www.w3.org/2000/svg">
</g>
<g xmlns="http://www.w3.org/2000/svg">
</g>
<g xmlns="http://www.w3.org/2000/svg">
</g>
<g xmlns="http://www.w3.org/2000/svg">
</g>
<g xmlns="http://www.w3.org/2000/svg">
</g>
</g></svg>