<svg xmlns="http://www.w3.org/2000/svg" version="1.1" xmlns:xlink="http://www.w3.org/1999/xlink" xmlns:svgjs="http://svgjs.com/svgjs" width="512" height="512" x="0" y="0" viewBox="0 0 512 512" style="enable-background:new 0 0 512 512" xml:space="preserve" class=""><g>
<g xmlns="http://www.w3.org/2000/svg">
	<g>
		<path d="M368,248c0-17.856-9.888-33.28-24.352-41.536C357.472,202.944,368,190.912,368,176c0-5.088-1.28-9.856-3.488-13.984    c-8.096-28.128-26.304-51.552-50.528-66.016H198.016c-24.256,14.464-42.432,37.888-50.56,66.016    C145.28,166.176,144,170.944,144,176c0,14.88,10.528,26.912,24.352,30.432C153.888,214.72,144,230.144,144,248    c0,17.888,9.888,33.28,24.384,41.568C154.496,293.056,144,305.056,144,320v160c0,17.664,14.336,32,32,32h160    c17.664,0,32-14.336,32-32V320c0-14.976-10.496-26.976-24.384-30.464C358.112,281.28,368,265.888,368,248z" fill="#fff"  data-original="#000000" style="" class=""></path>
	</g>
</g>
<g xmlns="http://www.w3.org/2000/svg">
	<g>
		<path d="M304,0h-96c-8.832,0-16,7.168-16,16v32c0,8.832,7.168,16,16,16h96c8.832,0,16-7.168,16-16V16C320,7.168,312.832,0,304,0z" fill="#fff"  data-original="#000000" style="" class=""></path>
	</g>
</g>
<g xmlns="http://www.w3.org/2000/svg">
</g>
<g xmlns="http://www.w3.org/2000/svg">
</g>
<g xmlns="http://www.w3.org/2000/svg">
</g>
<g xmlns="http://www.w3.org/2000/svg">
</g>
<g xmlns="http://www.w3.org/2000/svg">
</g>
<g xmlns="http://www.w3.org/2000/svg">
</g>
<g xmlns="http://www.w3.org/2000/svg">
</g>
<g xmlns="http://www.w3.org/2000/svg">
</g>
<g xmlns="http://www.w3.org/2000/svg">
</g>
<g xmlns="http://www.w3.org/2000/svg">
</g>
<g xmlns="http://www.w3.org/2000/svg">
</g>
<g xmlns="http://www.w3.org/2000/svg">
</g>
<g xmlns="http://www.w3.org/2000/svg">
</g>
<g xmlns="http://www.w3.org/2000/svg">
</g>
<g xmlns="http://www.w3.org/2000/svg">
</g>
</g></svg>